<svg xmlns="http://www.w3.org/2000/svg" width="103.03" height="77" viewBox="0 0 103.03 77">
  <defs>
    <style>
      .cls-1 {
        fill: #bec6d4;
        fill-rule: evenodd;
      }
    </style>
  </defs>
  <path id="Shape_1_copy" data-name="Shape 1 copy" class="cls-1" d="M1278.93,3522.81a9.74,9.74,0,1,1-9.74-9.7A9.724,9.724,0,0,1,1278.93,3522.81Zm56.8-27.81H1241.3s-4.29,0-4.29,4.28v68.44s0,4.28,4.29,4.28h94.43s4.29,0,4.29-4.28v-68.44S1340.02,3495,1335.73,3495Zm-4.29,68.44h-85.85v-59.88h85.85v59.88Zm-6.79-7.26s-4.01-23.18-16.06-23.18-16.06,15.46-24.08,15.46c-8.05,0-8.05-3.88-16.07-3.88s-16.06,11.6-16.06,11.6h72.27Z" transform="translate(-1237 -3495)"/>
</svg>
